<?xml version="1.0" encoding="utf-8"?>
<!-- Generator: Adobe Illustrator 15.1.0, SVG Export Plug-In . SVG Version: 6.00 Build 0)  -->
<!DOCTYPE svg PUBLIC "-//W3C//DTD SVG 1.1//EN" "http://www.w3.org/Graphics/SVG/1.1/DTD/svg11.dtd">
<svg version="1.1" id="Layer_1" xmlns="http://www.w3.org/2000/svg" xmlns:xlink="http://www.w3.org/1999/xlink" x="0px" y="0px"
	 width="200px" height="100px" viewBox="0 0 200 100" enable-background="new 0 0 200 100" xml:space="preserve">
<path fill-rule="evenodd" clip-rule="evenodd" fill="#A0C645" d="M81.362,25.474h110.374c3.88,0,7.046,3.161,7.046,7.037v38.611
	c0,3.875-3.166,7.036-7.046,7.036h-9.19v9.421c0,3.014-2.471,5.48-5.489,5.48H85.069c-3.02,0-5.49-2.467-5.49-5.48v-9.421h-1.497
	c-8.324,9.678-20.404,15.257-33.253,15.257C20.625,93.414,1,73.82,1,49.655C1,25.489,20.625,5.896,44.829,5.896
	C59.601,5.896,73.257,13.283,81.362,25.474"/>
<path fill-rule="evenodd" clip-rule="evenodd" fill="#414142" d="M44.829,8.823c14.788,0,27.743,7.836,34.926,19.577h70.458v7.619
	c0,1.136,0.93,2.064,2.068,2.064h43.571v33.038c0,2.261-1.852,4.109-4.116,4.109H76.708c-7.496,9.303-18.99,15.257-31.878,15.257
	c-22.588,0-40.898-18.281-40.898-40.832S22.241,8.823,44.829,8.823"/>
<path fill-rule="evenodd" clip-rule="evenodd" fill="#A0C645" d="M17.037,26.997h6.793c0.333,0,0.538,0.272,0.456,0.604
	l-1.685,6.782c-0.083,0.333-0.422,0.605-0.755,0.605h-6.793c-0.333,0-0.538-0.272-0.455-0.605l1.685-6.782
	C16.364,27.269,16.705,26.997,17.037,26.997"/>
<path fill-rule="evenodd" clip-rule="evenodd" fill="#A0C645" d="M27.326,40.167h6.793c0.333,0,0.538,0.272,0.455,0.604
	l-1.685,6.782c-0.082,0.333-0.422,0.604-0.756,0.604h-6.792c-0.333,0-0.538-0.272-0.456-0.604l1.684-6.782
	C26.653,40.438,26.993,40.167,27.326,40.167"/>
<path fill-rule="evenodd" clip-rule="evenodd" fill="#A0C645" d="M29.263,27.77l-1.709,7.462c-0.039,0.167-0.002,0.329,0.105,0.464
	c0.108,0.135,0.257,0.206,0.43,0.206h10.54c0.171,0,0.319,0.071,0.427,0.204s0.146,0.292,0.11,0.459l-8.38,39.344
	c-0.036,0.168,0.002,0.327,0.111,0.46c0.108,0.133,0.255,0.203,0.426,0.203h32.154c0.26,0,0.478-0.174,0.536-0.425l9.17-39.607
	c0.038-0.167,0.002-0.328-0.106-0.464c-0.108-0.135-0.256-0.207-0.43-0.207h-5.76c-0.166,0-0.309-0.065-0.417-0.191
	c-0.108-0.125-0.151-0.276-0.126-0.44l1.079-7.088c0.025-0.163-0.018-0.313-0.125-0.439c-0.108-0.125-0.25-0.191-0.415-0.192
	l-37.083-0.175C29.541,27.342,29.321,27.517,29.263,27.77"/>
<path fill-rule="evenodd" clip-rule="evenodd" fill="#414142" d="M57.645,50.446c-0.653,1.912-1.483,2.396-2.036,2.834
	c-0.708,0.562-0.516,0.558-0.568,1.42l-0.433,7.261c-0.044,0.74,0.056,1.072-0.97,1.072h-4.983c0,0-0.976-0.002-0.488-1.3
	l2.718-7.231c0.499-1.327,0.324-0.758-0.248-1.609c-0.772-1.15-0.658-2.64,0.018-3.904C52.839,44.907,59.301,45.594,57.645,50.446"
	/>
<path fill="#FFFFFF" d="M187.057,54.539l1.737-5.43h2.533l-4.25,11.523h-2.673l1.221-3.171l-2.968-8.352h2.576L187.057,54.539z
	 M179.584,56.645c-0.132,0.111-0.298,0.244-0.49,0.4c-0.195,0.154-0.378,0.277-0.553,0.367c-0.238,0.12-0.487,0.209-0.745,0.27
	c-0.259,0.059-0.543,0.088-0.854,0.088c-0.723,0-1.331-0.248-1.818-0.745c-0.492-0.497-0.735-1.131-0.735-1.905
	c0-0.617,0.125-1.122,0.374-1.512c0.249-0.394,0.603-0.704,1.06-0.93c0.453-0.225,1.017-0.387,1.688-0.482
	c0.67-0.094,1.365-0.163,2.087-0.209v-0.047c0-0.463-0.171-0.787-0.517-0.964c-0.345-0.177-0.853-0.266-1.521-0.266
	c-0.403,0-0.834,0.079-1.291,0.235c-0.457,0.159-0.787,0.28-0.985,0.365h-0.224v-2.042c0.258-0.073,0.678-0.164,1.261-0.266
	c0.581-0.104,1.168-0.154,1.752-0.154c1.391,0,2.396,0.235,3.013,0.71c0.619,0.475,0.928,1.218,0.928,2.233v5.749h-2.428V56.645z
	 M179.584,55.338v-1.767c-0.333,0.03-0.688,0.071-1.07,0.125c-0.387,0.052-0.678,0.112-0.875,0.185
	c-0.244,0.085-0.43,0.211-0.557,0.372c-0.13,0.163-0.195,0.379-0.195,0.646c0,0.178,0.014,0.318,0.041,0.432
	c0.027,0.109,0.095,0.215,0.204,0.314c0.102,0.101,0.229,0.176,0.372,0.224c0.146,0.049,0.37,0.071,0.678,0.071
	c0.245,0,0.491-0.057,0.74-0.166C179.173,55.662,179.395,55.518,179.584,55.338 M174.157,49.109l-2.374,8.431h-2.615l-1.554-5.683
	l-1.545,5.683h-2.631l-2.352-8.431h2.571l1.315,5.811l1.638-5.811h2.178l1.545,5.811l1.295-5.811H174.157z M158.433,52.248
	c-0.014-0.566-0.139-0.994-0.382-1.28c-0.239-0.285-0.613-0.428-1.121-0.428c-0.472,0-0.858,0.136-1.164,0.405
	c-0.302,0.272-0.474,0.706-0.51,1.303H158.433z M160.877,53.832h-5.614c0.038,0.662,0.265,1.169,0.685,1.521
	c0.422,0.352,1.041,0.524,1.86,0.524c0.518,0,1.019-0.104,1.506-0.313c0.486-0.208,0.87-0.433,1.152-0.671h0.271v2.176
	c-0.554,0.246-1.077,0.423-1.567,0.533c-0.492,0.111-1.039,0.166-1.631,0.166c-1.537,0-2.716-0.379-3.535-1.141
	c-0.816-0.761-1.227-1.846-1.227-3.253c0-1.393,0.388-2.495,1.161-3.308c0.775-0.813,1.84-1.22,3.189-1.22
	c1.245,0,2.181,0.346,2.809,1.041c0.625,0.695,0.94,1.692,0.94,2.998V53.832z M152.547,57.469c-0.264,0.076-0.543,0.135-0.841,0.177
	c-0.295,0.042-0.657,0.063-1.086,0.063c-0.956,0-1.668-0.213-2.135-0.639s-0.701-1.153-0.701-2.187V50.94h-1.005v-1.831h1.005
	v-2.416h2.458v2.416h2.305v1.831h-2.305v2.994c0,0.298,0.002,0.557,0.008,0.779c0.006,0.219,0.043,0.417,0.11,0.594
	c0.062,0.174,0.176,0.315,0.337,0.418c0.162,0.102,0.398,0.153,0.707,0.153c0.129,0,0.296-0.03,0.503-0.091
	c0.206-0.063,0.353-0.118,0.436-0.17h0.204V57.469z M143.624,56.645c-0.131,0.111-0.297,0.244-0.49,0.4
	c-0.194,0.154-0.378,0.277-0.549,0.367c-0.241,0.12-0.49,0.209-0.748,0.27c-0.26,0.059-0.543,0.088-0.854,0.088
	c-0.724,0-1.331-0.248-1.818-0.745c-0.492-0.497-0.735-1.131-0.735-1.905c0-0.617,0.125-1.122,0.374-1.512
	c0.249-0.394,0.603-0.704,1.059-0.93c0.454-0.225,1.018-0.387,1.688-0.482c0.67-0.094,1.366-0.163,2.088-0.209v-0.047
	c0-0.463-0.172-0.787-0.517-0.964c-0.346-0.177-0.854-0.266-1.522-0.266c-0.403,0-0.833,0.079-1.29,0.235
	c-0.457,0.159-0.786,0.28-0.986,0.365h-0.224v-2.042c0.259-0.073,0.679-0.164,1.262-0.266c0.583-0.104,1.167-0.154,1.749-0.154
	c1.394,0,2.399,0.235,3.016,0.71c0.619,0.475,0.928,1.218,0.928,2.233v5.749h-2.429V56.645z M143.624,55.338v-1.767
	c-0.332,0.03-0.687,0.071-1.07,0.125c-0.386,0.052-0.675,0.112-0.873,0.185c-0.244,0.085-0.431,0.211-0.558,0.372
	c-0.131,0.163-0.196,0.379-0.196,0.646c0,0.178,0.017,0.318,0.042,0.432c0.026,0.109,0.096,0.215,0.203,0.314
	c0.104,0.101,0.229,0.176,0.373,0.224c0.145,0.049,0.37,0.071,0.679,0.071c0.243,0,0.49-0.057,0.739-0.166
	C143.214,55.662,143.436,55.518,143.624,55.338 M137.452,56.898c-0.456,0.195-1.058,0.391-1.81,0.584
	c-0.749,0.191-1.499,0.287-2.243,0.287c-1.729,0-3.085-0.516-4.062-1.551c-0.978-1.035-1.468-2.466-1.468-4.289
	c0-1.741,0.494-3.141,1.481-4.208c0.986-1.064,2.363-1.598,4.128-1.598c0.67,0,1.304,0.066,1.91,0.2
	c0.605,0.13,1.277,0.398,2.019,0.792v2.624h-0.292c-0.128-0.105-0.314-0.254-0.558-0.446c-0.247-0.192-0.482-0.357-0.712-0.493
	c-0.265-0.159-0.571-0.297-0.924-0.413c-0.354-0.115-0.726-0.171-1.121-0.171c-0.465,0-0.886,0.074-1.264,0.226
	s-0.716,0.379-1.014,0.693c-0.288,0.299-0.516,0.681-0.682,1.145c-0.163,0.462-0.248,0.998-0.248,1.603
	c0,1.24,0.296,2.186,0.896,2.842c0.597,0.656,1.478,0.984,2.643,0.984c0.101,0,0.212-0.002,0.334-0.008
	c0.119-0.005,0.231-0.013,0.332-0.022v-2.2h-2.042v-2.107h4.694V56.898z M120.052,52.248c-0.013-0.566-0.139-0.994-0.38-1.28
	c-0.24-0.285-0.614-0.428-1.122-0.428c-0.473,0-0.858,0.136-1.163,0.405c-0.303,0.272-0.473,0.706-0.511,1.303H120.052z
	 M122.496,53.832h-5.612c0.036,0.662,0.264,1.169,0.685,1.521c0.42,0.352,1.039,0.524,1.858,0.524c0.518,0,1.021-0.104,1.508-0.313
	c0.485-0.208,0.87-0.433,1.151-0.671h0.271v2.176c-0.553,0.246-1.076,0.423-1.568,0.533c-0.492,0.111-1.035,0.166-1.63,0.166
	c-1.54,0-2.716-0.379-3.536-1.141c-0.815-0.761-1.227-1.846-1.227-3.253c0-1.393,0.388-2.495,1.161-3.308
	c0.775-0.813,1.84-1.22,3.189-1.22c1.246,0,2.182,0.346,2.811,1.041c0.626,0.695,0.938,1.692,0.938,2.998V53.832z M114.231,51.693
	h-0.218c-0.105-0.041-0.272-0.071-0.507-0.092c-0.229-0.021-0.422-0.031-0.576-0.031c-0.349,0-0.655,0.026-0.922,0.075
	c-0.268,0.05-0.558,0.136-0.864,0.255v5.64h-2.459v-8.431h2.459v1.239c0.54-0.511,1.007-0.849,1.408-1.018
	c0.397-0.167,0.766-0.252,1.1-0.252c0.087,0,0.185,0.003,0.291,0.008c0.11,0.005,0.206,0.013,0.288,0.023V51.693z M107.034,57.54
	h-2.458v-0.934c-0.455,0.382-0.867,0.669-1.246,0.867c-0.374,0.197-0.823,0.296-1.344,0.296c-0.844,0-1.496-0.266-1.949-0.803
	c-0.456-0.534-0.685-1.324-0.685-2.371v-5.487h2.458v4.18c0,0.426,0.012,0.779,0.037,1.061c0.026,0.285,0.084,0.518,0.175,0.703
	c0.087,0.185,0.216,0.32,0.392,0.406c0.174,0.084,0.419,0.127,0.732,0.127c0.207,0,0.44-0.043,0.693-0.127
	c0.254-0.086,0.501-0.211,0.736-0.375v-5.975h2.458V57.54z M95.85,57.77c-0.668,0-1.278-0.086-1.83-0.264
	c-0.552-0.173-1.033-0.443-1.44-0.809c-0.405-0.365-0.719-0.826-0.943-1.383c-0.221-0.557-0.333-1.205-0.333-1.951
	c0-0.787,0.119-1.467,0.358-2.036c0.237-0.571,0.57-1.043,0.999-1.421c0.412-0.354,0.889-0.615,1.432-0.779
	c0.54-0.167,1.101-0.249,1.683-0.249c0.523,0,1.005,0.062,1.445,0.188c0.439,0.125,0.852,0.289,1.234,0.489v2.307h-0.348
	c-0.095-0.089-0.209-0.194-0.344-0.312c-0.132-0.121-0.298-0.239-0.493-0.352c-0.187-0.11-0.392-0.203-0.612-0.274
	c-0.224-0.073-0.482-0.108-0.776-0.108c-0.654,0-1.157,0.228-1.508,0.687c-0.352,0.459-0.529,1.079-0.529,1.867
	c0,0.811,0.182,1.426,0.542,1.846c0.361,0.422,0.871,0.631,1.534,0.631c0.31,0,0.587-0.038,0.833-0.115
	c0.249-0.079,0.454-0.172,0.616-0.277c0.154-0.1,0.291-0.205,0.408-0.315c0.118-0.11,0.227-0.217,0.327-0.322h0.348v2.303
	c-0.387,0.2-0.79,0.355-1.211,0.474C96.825,57.712,96.359,57.77,95.85,57.77 M88.358,52.248c-0.013-0.566-0.139-0.994-0.381-1.28
	c-0.24-0.285-0.615-0.428-1.123-0.428c-0.472,0-0.859,0.136-1.163,0.405c-0.304,0.272-0.473,0.706-0.51,1.303H88.358z
	 M90.803,53.832h-5.615c0.037,0.662,0.265,1.169,0.685,1.521c0.421,0.352,1.041,0.524,1.859,0.524c0.517,0,1.019-0.104,1.506-0.313
	c0.486-0.208,0.871-0.433,1.152-0.671h0.272v2.176c-0.554,0.246-1.079,0.423-1.569,0.533c-0.492,0.111-1.036,0.166-1.629,0.166
	c-1.539,0-2.716-0.379-3.535-1.141c-0.817-0.761-1.226-1.846-1.226-3.253c0-1.393,0.385-2.495,1.16-3.308
	c0.775-0.813,1.839-1.22,3.189-1.22c1.246,0,2.181,0.346,2.809,1.041c0.626,0.695,0.941,1.692,0.941,2.998V53.832z M82.263,54.025
	c0,1.099-0.424,1.994-1.271,2.682c-0.847,0.689-1.996,1.033-3.448,1.033c-0.841,0-1.574-0.082-2.197-0.244
	c-0.626-0.161-1.211-0.369-1.755-0.617v-2.678h0.286c0.54,0.475,1.146,0.838,1.814,1.096c0.669,0.253,1.312,0.382,1.929,0.382
	c0.161,0,0.368-0.017,0.628-0.047c0.258-0.027,0.468-0.079,0.634-0.149c0.197-0.092,0.362-0.203,0.493-0.338
	c0.128-0.136,0.193-0.338,0.193-0.602c0-0.246-0.093-0.457-0.281-0.637c-0.189-0.176-0.465-0.313-0.829-0.408
	c-0.382-0.099-0.784-0.193-1.209-0.281c-0.424-0.087-0.825-0.199-1.197-0.333c-0.854-0.305-1.467-0.721-1.841-1.243
	c-0.375-0.523-0.563-1.172-0.563-1.95c0-1.041,0.424-1.89,1.271-2.549c0.848-0.659,1.937-0.987,3.268-0.987
	c0.668,0,1.327,0.072,1.979,0.213c0.654,0.144,1.217,0.323,1.694,0.538v2.572h-0.279c-0.408-0.359-0.911-0.659-1.502-0.9
	c-0.593-0.241-1.199-0.362-1.814-0.362c-0.22,0-0.436,0.015-0.65,0.049c-0.217,0.033-0.423,0.092-0.624,0.182
	c-0.177,0.077-0.329,0.19-0.457,0.341c-0.127,0.15-0.191,0.325-0.191,0.52c0,0.294,0.103,0.521,0.307,0.68
	c0.205,0.155,0.589,0.299,1.157,0.43c0.372,0.084,0.731,0.169,1.076,0.249c0.341,0.079,0.709,0.19,1.104,0.331
	c0.778,0.28,1.35,0.662,1.721,1.144C82.077,52.625,82.263,53.252,82.263,54.025"/>
</svg>
